<svg xmlns="http://www.w3.org/2000/svg" xmlns:xlink="http://www.w3.org/1999/xlink" viewBox="0,0,256,256" width="26px" height="26px" fill-rule="nonzero"><g fill-opacity="0.56078" fill="#339af0" fill-rule="nonzero" stroke="none" stroke-width="1" stroke-linecap="butt" stroke-linejoin="miter" stroke-miterlimit="10" stroke-dasharray="" stroke-dashoffset="0" font-family="none" font-weight="none" font-size="none" text-anchor="none" style="mix-blend-mode: normal"><g transform="scale(9.84615,9.84615)"><path d="M16.5625,15.89844c-0.16016,-0.05078 -1.16406,-0.50391 -0.53516,-2.41406h-0.00781c1.63672,-1.68359 2.88672,-4.39844 2.88672,-7.07031c0,-4.10547 -2.73047,-6.25781 -5.90625,-6.25781c-3.17578,0 -5.89062,2.15234 -5.89062,6.25781c0,2.68359 1.24219,5.40625 2.89063,7.08984c0.64063,1.68359 -0.50781,2.30859 -0.74609,2.39453c-3.32422,1.20312 -7.22266,3.39453 -7.22266,5.55859c0,0.58203 0,0.23047 0,0.8125c0,2.94531 5.71094,3.61719 11,3.61719c5.29688,0 10.9375,-0.67187 10.9375,-3.61719c0,-0.58203 0,-0.23047 0,-0.8125c0,-2.22656 -3.91797,-4.40234 -7.40625,-5.55859z"></path></g></g></svg>